<svg id="Capa_1" data-name="Capa 1" xmlns="http://www.w3.org/2000/svg" viewBox="0 0 469 469"><defs><style>.cls-1{fill:#26759e;}.cls-2{fill:#fff;}</style></defs><title>boton</title><circle class="cls-1" cx="234.5" cy="234.5" r="234.5"/><path class="cls-2" d="M204.79,341.21l55.32,46.72,88.27,74.55,20.41,17.23,6.07-47.11-59.08,36.29-94.23,57.88L199.86,540.1c-13.37,8.21-19.68,27.22-10.76,41,8.64,13.41,26.74,19.55,41,10.76l59.08-36.29,94.23-57.88,21.69-13.33c15.27-9.38,21.31-34.25,6.07-47.11l-55.32-46.72L267.62,316l-20.41-17.23C241,293.55,234.37,290,226,290c-7.36,0-16.15,3.27-21.21,8.79-10.24,11.14-12.81,31.61,0,42.42Z" transform="translate(-66 -224)"/></svg>